<?xml version="1.0" encoding="UTF-8"?>
<svg xmlns="http://www.w3.org/2000/svg" xmlns:xlink="http://www.w3.org/1999/xlink" width="324px" height="53px" viewBox="0 0 324 53" version="1.1">
  <title>logo_emory_cidmath_dark_blue_2_no-tagline</title>
  <g id="homepage-2" stroke="none" stroke-width="1" fill="none" fill-rule="evenodd">
    <g id="cidmath_logos" transform="translate(-599, -182)">
      <g id="logo_emory_cidmath_dark_blue_2_no-tagline" transform="translate(599, 182)">
        <path d="M26.0604423,52.17 C35.6404423,52.17 44.0004423,47.01 48.5504423,39.32 L38.9304423,33.11 C36.4204423,37.65 31.6104423,40.72 26.0604423,40.72 C19.6304423,40.72 14.2004423,36.55 12.1904423,30.79 C11.4504423,28.67 9.02044226,28.61 8.08044226,30.52 C7.63044226,31.44 7.52044226,32.56 6.41044226,32.88 C5.81044226,33.05 5.09044226,32.92 4.46044226,32.61 C2.45044226,31.66 0.760442264,32.92 1.54044226,35.01 C5.20044226,45.02 14.8004423,52.15 26.0604423,52.15 L26.0604423,52.15 L26.0604423,52.17 Z" id="Path" fill="#232C65"></path>
        <path d="M20.9904423,0.51 C22.4704423,0.51 23.6604423,1.7 23.6604423,3.16 C23.6604423,4.62 22.4704423,5.81 20.9904423,5.81 C19.5104423,5.81 18.3404423,4.62 18.3404423,3.16 C18.3404423,1.7 19.5304423,0.51 20.9904423,0.51 L20.9904423,0.51 L20.9904423,0.51 Z" id="Path" fill="#047DBA"></path>
        <path d="M23.6204423,44.21 C23.6204423,45.38 22.6504423,46.35 21.4804423,46.35 C20.3104423,46.35 19.3404423,45.38 19.3404423,44.21 C19.3404423,43.04 20.2904423,42.05 21.4804423,42.05 C22.6704423,42.05 23.6204423,43.02 23.6204423,44.21 L23.6204423,44.21 L23.6204423,44.21 Z" id="Path" fill="#047DBA"></path>
        <path d="M16.7704423,45.78 C17.5104423,45.78 18.0904423,46.36 18.0904423,47.1 C18.0904423,47.84 17.5104423,48.42 16.7704423,48.42 C16.0304423,48.42 15.4504423,47.82 15.4504423,47.1 C15.4504423,46.38 16.0504423,45.78 16.7704423,45.78 L16.7704423,45.78 Z" id="Path" fill="#047DBA"></path>
        <path d="M9.91044226,33.2 C10.5904423,33.2 11.1204423,33.73 11.1204423,34.41 C11.1204423,35.09 10.5904423,35.64 9.91044226,35.64 C9.23044226,35.64 8.68044226,35.08 8.68044226,34.41 C8.68044226,33.74 9.23044226,33.2 9.91044226,33.2 L9.91044226,33.2 Z" id="Path" fill="#047DBA"></path>
        <path d="M16.0304423,40.72 C16.3404423,41.56 16.2404423,42.45 15.7804423,43.17 C15.3504423,43.87 14.6104423,44.36 13.7304423,44.44 C12.2104423,44.58 10.8704423,43.47 10.7304423,41.97 C10.6504423,41.13 10.7304423,40.68 10.0104423,40.12 C9.48044226,39.71 8.45044226,39.11 7.91044226,38.85 C7.11044226,38.44 6.84044226,38.87 6.08044226,38.95 C5.03044226,39.03 4.09044226,38.27 3.98044226,37.2 C3.94044226,36.77 4.04044226,36.36 4.27044226,36.01 C4.48044226,35.66 4.80044226,35.39 5.22044226,35.23 C6.21044226,34.84 7.32044226,35.35 7.71044226,36.34 C7.98044226,37.04 7.71044226,37.49 8.43044226,38.03 C8.90044226,38.38 9.89044226,39.04 10.5104423,39.35 C11.3304423,39.74 11.7004423,39.47 12.4804423,39.16 C13.9004423,38.6 15.4804423,39.32 16.0404423,40.72 L16.0404423,40.72 L16.0304423,40.72 Z" id="Path" fill="#047DBA"></path>
        <path d="M8.61044226,40.95 C9.06044226,40.95 9.45044226,41.32 9.45044226,41.79 C9.45044226,42.26 9.06044226,42.61 8.61044226,42.61 C8.16044226,42.61 7.77044226,42.24 7.77044226,41.79 C7.77044226,41.34 8.14044226,40.95 8.61044226,40.95 L8.61044226,40.95 Z" id="Path" fill="#047DBA"></path>
        <path d="M1.91044226,19.01 C2.59044226,19.01 3.14044226,19.57 3.14044226,20.24 C3.14044226,20.91 2.59044226,21.45 1.91044226,21.45 C1.23044226,21.45 0.700442264,20.92 0.700442264,20.24 C0.700442264,19.56 1.23044226,19.01 1.91044226,19.01 L1.91044226,19.01 Z" id="Path" fill="#047DBA"></path>
        <path d="M18.2304423,10.69 C19.0904423,10.69 19.7904423,11.39 19.7904423,12.25 C19.7904423,13.11 19.0904423,13.81 18.2304423,13.81 C17.3704423,13.81 16.6904423,13.11 16.6904423,12.25 C16.6904423,11.39 17.3704423,10.69 18.2304423,10.69 L18.2304423,10.69 Z" id="Path" fill="#047DBA"></path>
        <path d="M10.7904423,21.25 C11.5704423,21.25 12.2104423,21.89 12.2104423,22.67 C12.2104423,23.45 11.5704423,24.07 10.7904423,24.07 C10.0104423,24.07 9.39044226,23.43 9.39044226,22.67 C9.39044226,21.91 10.0104423,21.25 10.7904423,21.25 L10.7904423,21.25 Z" id="Path" fill="#047DBA"></path>
        <path d="M7.26044226,8.59 C7.90044226,8.59 8.43044226,9.12 8.43044226,9.76 C8.43044226,10.4 7.90044226,10.91 7.26044226,10.91 C6.62044226,10.91 6.11044226,10.4 6.11044226,9.76 C6.11044226,9.12 6.62044226,8.59 7.26044226,8.59 L7.26044226,8.59 Z" id="Path" fill="#047DBA"></path>
        <path d="M41.8504423,6.13 C43.2104423,6.13 44.3204423,7.24 44.3204423,8.6 C44.3204423,9.96 43.2104423,11.07 41.8504423,11.07 C40.4904423,11.07 39.3604423,9.98 39.3604423,8.6 C39.3604423,7.22 40.4704423,6.13 41.8504423,6.13 L41.8504423,6.13 Z" id="Path" fill="#047DBA"></path>
        <path d="M32.6604423,9.02 C33.9104423,9.02 34.9204423,10.03 34.9204423,11.26 C34.9204423,12.49 33.9104423,13.52 32.6604423,13.52 C31.4104423,13.52 30.4204423,12.49 30.4204423,11.26 C30.4204423,10.03 31.4304423,9.02 32.6604423,9.02 L32.6604423,9.02 Z" id="Path" fill="#047DBA"></path>
        <path d="M46.0604423,10.5 C47.0304423,10.5 47.8104423,11.26 47.8104423,12.23 C47.8104423,13.2 47.0304423,13.96 46.0604423,13.96 C45.0904423,13.96 44.3304423,13.18 44.3304423,12.23 C44.3304423,11.28 45.1104423,10.5 46.0604423,10.5 L46.0604423,10.5 Z" id="Path" fill="#047DBA"></path>
        <path d="M31.2204423,1.01 C31.8604423,1.01 32.3704423,1.52 32.3704423,2.16 C32.3704423,2.8 31.8604423,3.33 31.2204423,3.33 C30.5804423,3.33 30.0504423,2.82 30.0504423,2.16 C30.0504423,1.5 30.5804423,1.01 31.2204423,1.01 L31.2204423,1.01 Z" id="Path" fill="#047DBA"></path>
        <path d="M27.0704423,0 C28.1404423,0 29.0004423,0.86 29.0004423,1.93 C29.0004423,3 28.1404423,3.86 27.0704423,3.86 C26.0004423,3.86 25.1404423,3 25.1404423,1.93 C25.1404423,0.86 26.0004423,0 27.0704423,0 L27.0704423,0 Z" id="Path" fill="#047DBA"></path>
        <path d="M29.5404423,9.31 C29.3504423,11.26 27.7104423,12.8 25.7004423,12.8 C23.5804423,12.8 21.8604423,11.07 21.8604423,8.96 C21.8604423,6.85 23.5904423,5.12 25.7004423,5.12 C26.4404423,5.12 27.1404423,5.33 27.7304423,5.69 C28.4904423,6.16 29.0704423,6.43 29.9104423,6.12 C30.3604423,5.96 31.4504423,5.46 31.9904423,5.13 C32.4004423,4.88 32.5204423,4.66 32.5604423,4.14 C32.6604423,2.84 33.7504423,1.82 35.0904423,1.82 C36.4304423,1.82 37.6004423,2.95 37.6004423,4.35 C37.6004423,4.91 37.4204423,5.42 37.1104423,5.85 C36.8004423,6.28 36.7604423,6.47 36.9204423,6.96 C37.3104423,8.13 38.1704423,10 38.6904423,11.07 C39.1204423,11.97 39.7604423,12.36 40.7004423,12.57 C42.2204423,12.88 43.3504423,14.24 43.3504423,15.86 C43.3504423,17.71 41.8504423,19.21 40.0004423,19.21 C38.1504423,19.21 36.6304423,17.71 36.6304423,15.86 C36.6304423,15.2 36.8104423,14.59 37.1204423,14.07 C37.6804423,13.21 37.7804423,12.51 37.4104423,11.52 C36.9404423,10.29 36.2604423,8.6 35.6604423,7.45 C35.4304423,6.98 35.2304423,6.92 34.7104423,6.85 C34.3404423,6.79 33.9904423,6.64 33.6804423,6.46 C33.2704423,6.17 33.0204423,6.15 32.5704423,6.32 C32.0604423,6.53 31.0704423,7.02 30.5604423,7.33 C29.8004423,7.8 29.5904423,8.42 29.5304423,9.3 L29.5304423,9.3 L29.5404423,9.31 Z" id="Path" fill="#047DBA"></path>
        <path d="M13.8504423,11.22 C12.6204423,11.01 12.0204423,10.75 10.9704423,11.55 C10.1904423,12.17 8.96044226,13.4 8.38044226,14.06 C7.52044226,15.05 8.03044226,15.58 7.85044226,16.69 C7.60044226,18.21 6.16044226,19.26 4.62044226,19.01 C3.39044226,18.8 2.42044226,17.8 2.28044226,16.54 C2.12044226,15 3.23044226,13.6 4.77044226,13.44 C5.86044226,13.3 6.39044226,13.83 7.42044226,13.03 C8.10044226,12.5 9.39044226,11.32 10.0504423,10.56 C10.8904423,9.57 10.6504423,8.94 10.5204423,7.7 C10.2704423,5.5 11.8604423,3.51 14.0504423,3.26 C16.6604423,2.97 18.8804423,5.29 18.4504423,7.91 C18.1004423,10.09 16.0404423,11.57 13.8504423,11.22 L13.8504423,11.22 L13.8504423,11.22 Z" id="Path" fill="#047DBA"></path>
        <path d="M4.21044226,22.26 C5.51044226,22.28 6.18044226,22.45 7.13044226,21.46 C7.85044226,20.7 8.92044226,19.22 9.39044226,18.46 C10.1304423,17.31 9.51044226,16.82 9.51044226,15.64 C9.53044226,14.02 10.8504423,12.72 12.4704423,12.72 C13.1504423,12.72 13.7604423,12.95 14.2604423,13.34 C14.7504423,13.71 15.1204423,14.24 15.3104423,14.9 C15.7404423,16.46 14.8204423,18.09 13.2304423,18.5 C12.1204423,18.81 11.4804423,18.36 10.5604423,19.36 C9.94044226,20.02 8.79044226,21.44 8.26044226,22.32 C7.54044226,23.49 7.89044226,24.09 8.22044226,25.34 C8.84044226,27.58 7.52044226,29.88 5.30044226,30.5 C3.99044226,30.87 2.65044226,30.56 1.64044226,29.78 C0.640442264,29.02 -0.0195577362,27.81 0.000442263793,26.43 C0.000442263793,24.11 1.89044226,22.26 4.21044226,22.26 L4.21044226,22.26 Z" id="Path" fill="#047DBA"></path>
        <rect id="Rectangle" fill="#232C65" fill-rule="nonzero" x="54.4904423" y="2.47" width="12.85" height="49.61"></rect>
        <path d="M113.750442,7.75 C111.100442,5.87 108.040442,4.5 104.650442,3.69 C101.290442,2.88 97.8304423,2.48 94.3804423,2.48 L76.3004423,2.48 L76.3004423,52.09 L94.9304423,52.09 C98.3004423,52.09 101.670442,51.61 104.950442,50.66 C108.240442,49.71 111.240442,48.2 113.870442,46.18 C116.500442,44.15 118.650442,41.53 120.260442,38.39 C121.870442,35.24 122.680442,31.46 122.680442,27.14 C122.680442,22.51 121.850442,18.55 120.220442,15.38 C118.590442,12.21 116.410442,9.64 113.750442,7.75 L113.750442,7.75 Z M88.8104423,13.54 L94.1104423,13.54 C96.0704423,13.54 98.0004423,13.77 99.8504423,14.21 C101.670442,14.65 103.310442,15.39 104.740442,16.42 C106.150442,17.44 107.290442,18.83 108.140442,20.55 C108.990442,22.27 109.420442,24.49 109.420442,27.14 C109.420442,29.79 108.990442,31.95 108.140442,33.7 C107.290442,35.44 106.150442,36.85 104.740442,37.89 C103.320442,38.94 101.650442,39.71 99.7804423,40.17 C97.8904423,40.64 95.8904423,40.87 93.8404423,40.87 L88.8204423,40.87 L88.8204423,13.54 L88.8104423,13.54 Z" id="Shape" fill="#232C65" fill-rule="nonzero"></path>
        <polygon id="Path" fill="#232C65" fill-rule="nonzero" points="157.760442 32.91 146.960442 2.47 129.370442 2.47 129.370442 52.08 141.470442 52.08 141.210442 19.74 152.770442 52.08 161.740442 52.08 173.640442 19.67 173.390442 52.08 185.970442 52.08 185.970442 2.47 168.100442 2.47"></polygon>
        <path d="M209.430442,2.47 L188.620442,52.08 L202.540442,52.08 L206.110442,42.55 L224.170442,42.55 L227.940442,52.08 L242.120442,52.08 L221.520442,2.47 L209.430442,2.47 Z M220.550442,32.1 L209.860442,32.1 L215.260442,17.51 L220.540442,32.1 L220.550442,32.1 Z" id="Shape" fill="#232C65" fill-rule="nonzero"></path>
        <polygon id="Path" fill="#232C65" fill-rule="nonzero" points="236.060442 13.54 249.780442 13.54 249.780442 52.08 262.560442 52.08 262.560442 13.54 276.280442 13.54 276.280442 2.47 236.060442 2.47"></polygon>
        <polygon id="Path" fill="#232C65" fill-rule="nonzero" points="311.210442 2.47 311.210442 20.85 293.350442 20.85 293.350442 2.47 280.560442 2.47 280.560442 52.08 293.350442 52.08 293.350442 31.78 311.210442 31.78 311.210442 52.08 324.000442 52.08 324.000442 2.47"></polygon>
      </g>
    </g>
  </g>
</svg>
